<svg width="89" height="88" viewBox="0 0 89 88" fill="none" xmlns="http://www.w3.org/2000/svg">
<path d="M33.4997 80.6666H55.4997C73.833 80.6666 81.1663 73.3332 81.1663 54.9999V32.9999C81.1663 14.6666 73.833 7.33325 55.4997 7.33325H33.4997C15.1663 7.33325 7.83301 14.6666 7.83301 32.9999V54.9999C7.83301 73.3332 15.1663 80.6666 33.4997 80.6666Z" stroke="#685CF0" stroke-width="3" stroke-linecap="round" stroke-linejoin="round"/>
<path d="M26.167 32.0833C29.8337 28.4166 35.8103 28.4166 39.5137 32.0833" stroke="#685CF0" stroke-width="3" stroke-miterlimit="10" stroke-linecap="round" stroke-linejoin="round"/>
<path d="M49.4863 32.0833C53.153 28.4166 59.1297 28.4166 62.833 32.0833" stroke="#685CF0" stroke-width="3" stroke-miterlimit="10" stroke-linecap="round" stroke-linejoin="round"/>
<path d="M31.3 64.9001H57.7C59.5333 64.9001 61 63.4334 61 61.6001C61 52.4701 53.63 45.1001 44.5 45.1001C35.37 45.1001 28 52.4701 28 61.6001C28 63.4334 29.4667 64.9001 31.3 64.9001Z" stroke="#685CF0" stroke-width="3" stroke-miterlimit="10" stroke-linecap="round" stroke-linejoin="round"/>
</svg>
