<svg width="22" height="22" viewBox="0 0 22 22" fill="none" xmlns="http://www.w3.org/2000/svg">
<path d="M11.0185 2.66748C7.98437 2.66748 5.51854 5.13331 5.51854 8.16748V10.8166C5.51854 11.3758 5.2802 12.2283 4.99604 12.705L3.94187 14.4558C3.29104 15.5375 3.7402 16.7383 4.93187 17.1416C8.8827 18.4616 13.1452 18.4616 17.096 17.1416C18.2052 16.775 18.691 15.4641 18.086 14.4558L17.0319 12.705C16.7569 12.2283 16.5185 11.3758 16.5185 10.8166V8.16748C16.5185 5.14248 14.0435 2.66748 11.0185 2.66748Z" stroke="#191D31" stroke-width="1.5" stroke-miterlimit="10" stroke-linecap="round"/>
<path d="M12.7139 2.93332C12.4298 2.85082 12.1364 2.78665 11.8339 2.74999C10.9539 2.63999 10.1106 2.70415 9.32227 2.93332C9.5881 2.25499 10.2481 1.77832 11.0181 1.77832C11.7881 1.77832 12.4481 2.25499 12.7139 2.93332Z" stroke="#191D31" stroke-width="1.5" stroke-miterlimit="10" stroke-linecap="round" stroke-linejoin="round"/>
<path d="M13.7686 17.4717C13.7686 18.9842 12.5311 20.2217 11.0186 20.2217C10.2669 20.2217 9.57022 19.91 9.07522 19.415C8.58022 18.92 8.26855 18.2233 8.26855 17.4717" stroke="#191D31" stroke-width="1.5" stroke-miterlimit="10"/>
</svg>
