<svg width="14" height="14" viewBox="0 0 14 14" fill="none" xmlns="http://www.w3.org/2000/svg">
<path d="M8.15327 1.34025L9.32661 3.68692C9.48661 4.01359 9.91327 4.32692 10.2733 4.38692L12.3999 4.74025C13.7599 4.96692 14.0799 5.95359 13.0999 6.92692L11.4466 8.58025C11.1666 8.86025 11.0133 9.40025 11.0999 9.78692L11.5733 11.8336C11.9466 13.4536 11.0866 14.0803 9.65327 13.2336L7.65994 12.0536C7.29994 11.8403 6.70661 11.8403 6.33994 12.0536L4.34661 13.2336C2.91994 14.0803 2.05327 13.4469 2.42661 11.8336L2.89994 9.78692C2.98661 9.40025 2.83327 8.86025 2.55327 8.58025L0.899939 6.92692C-0.073394 5.95359 0.23994 4.96692 1.59994 4.74025L3.72661 4.38692C4.07994 4.32692 4.50661 4.01359 4.66661 3.68692L5.83994 1.34025C6.47994 0.0669206 7.51994 0.0669206 8.15327 1.34025Z" fill="#FFBB0D"/>
</svg>
